# xmcd CD database file
#
# Track frame offsets:
#	150
#	56579
#	86349
#	138639
#	169094
#	200591
#	246762
#
# Disc length: 3649 seconds
#
# Revision: 2
# Processed by: cddbd v1.5.2PL0 Copyright (c) Steve Scherf et al.
# Submitted via: CDex 1.70beta2
#
DISCID=5d0e3f07
DTITLE=Ludwig Van Beethoven - Piano Trio "Archduke","Geister"
DYEAR=1982
DGENRE=Classical
TTITLE0=Piano trio No.7 in B Flat Major,op.97 "Archduke" 1 Allegro moderato
TTITLE1=Piano trio No.7 in B Flat Major,op.97 "Archduke" 2 Scherzo
TTITLE2=Piano trio No.7 in B Flat Major,op.97 "Archduke" 3 Andante cantabile ma pero con moto
TTITLE3=Piano trio No.7 in B Flat Major,op.97 "Archduke" 4 Allegro moderato
TTITLE4=Piano trio No.5 in D Major,op.70-1 "Geister" 1 Allegro vivace e con brio
TTITLE5=Piano trio No.5 in D Major,op.70-1 "Geister" 2 Largo assai ed espressivo
TTITLE6=Piano trio No.5 in D Major,op.70-1 "Geister" 3 Presto
EXTD=YEAR: 1982
EXTT0=
EXTT1=
EXTT2=
EXTT3=
EXTT4=
EXTT5=
EXTT6=
PLAYORDER=
